<svg width="851" height="851" viewBox="0 0 851 851" fill="none" xmlns="http://www.w3.org/2000/svg">
<path d="M818.2 425.23C818.2 642.263 642.463 818.2 425.678 818.2C393.228 818.2 361.696 814.252 331.532 806.823C202.992 750.375 113.2 621.838 113.2 472.302C113.2 270.663 276.491 107.2 477.9 107.2C613.738 107.2 732.242 181.564 794.992 291.841C810.012 333.485 818.2 378.405 818.2 425.23Z" fill="#FED039"/>
<path d="M795.2 291.928C732.354 181.588 613.669 107.182 477.623 107.182C275.906 107.182 112.366 270.737 112.366 472.49C112.366 622.111 202.295 750.72 331.032 807.2C159.456 764.957 32.2 610.042 32.2 425.392C32.2 208.237 208.205 32.2 425.322 32.2C595.595 32.2 740.581 140.469 795.2 291.928Z" fill="#FED039"/>
<path d="M425.2 683.2C567.689 683.2 683.2 567.689 683.2 425.2C683.2 282.71 567.689 167.2 425.2 167.2C282.711 167.2 167.2 282.71 167.2 425.2C167.2 567.689 282.711 683.2 425.2 683.2Z" fill="#FFE880"/>
<path d="M425.2 141.2C268.358 141.2 141.2 268.344 141.2 425.2C141.2 582.056 268.344 709.2 425.2 709.2C582.056 709.2 709.2 582.056 709.2 425.2C709.2 268.344 582.056 141.2 425.2 141.2ZM425.2 683.67C282.453 683.67 166.73 567.947 166.73 425.2C166.73 282.453 282.453 166.73 425.2 166.73C567.947 166.73 683.67 282.453 683.67 425.2C683.67 567.947 567.947 683.67 425.2 683.67Z" fill="#E8BF5A"/>
<path d="M508.377 417.772L411.873 611.587C403.448 628.52 377.76 621.535 379.137 602.681L390.04 452.806C390.645 444.421 385.111 436.819 376.934 434.816L339.2 425.553C362.782 380.997 400.723 345.168 446.895 324.2L443.702 346.732C442.752 353.442 445.835 360.098 451.59 363.72L502.14 395.542C509.629 400.263 512.341 409.868 508.39 417.786L508.377 417.772Z" fill="#E8BF5A"/>
<path d="M458.009 246.846L447.073 324.155C401.113 345.059 363.347 380.779 339.874 425.2L316.304 419.399C304.273 416.444 299.23 402.148 306.726 392.312L427.272 234.041C438.002 219.95 460.503 229.308 458.009 246.846Z" fill="#FED039"/>
<path d="M519.214 215.513V213.873C519.969 211.605 521.494 210.293 523.762 209.391C548.589 199.579 565.956 182.279 575.862 157.614C576.686 155.564 577.758 153.965 579.888 153.2H582.526C584.546 153.993 585.658 155.496 586.455 157.504C596.224 182.02 613.44 199.252 637.993 209.172C640.548 210.197 642.513 211.454 643.2 214.215V214.871C642.678 217.863 640.617 219.148 637.924 220.228C613.509 230.107 596.362 247.257 586.551 271.595C585.713 273.686 584.614 275.312 582.512 276.2H579.874C577.827 275.353 576.686 273.836 575.862 271.772C566.038 247.285 548.809 230.053 524.242 220.159C521.865 219.203 519.997 218.027 519.2 215.527L519.214 215.513Z" fill="white"/>
</svg>
