<svg width="20" height="20" viewBox="0 0 20 20" fill="none" xmlns="http://www.w3.org/2000/svg">
<g clip-path="url(#clip0_23748_12064)">
<path d="M10 20C8.02219 20 6.08879 19.4135 4.4443 18.3147C2.79981 17.2159 1.51809 15.6541 0.761209 13.8268C0.00433286 11.9996 -0.193701 9.98891 0.192152 8.0491C0.578004 6.10929 1.53041 4.32746 2.92894 2.92894C4.32746 1.53041 6.10929 0.578004 8.0491 0.192152C9.98891 -0.193701 11.9996 0.00433286 13.8268 0.761209C15.6541 1.51809 17.2159 2.79981 18.3147 4.4443C19.4135 6.08879 20 8.02219 20 10C19.9971 12.6513 18.9426 15.1932 17.0679 17.0679C15.1932 18.9426 12.6513 19.9971 10 20ZM10 1.66667C8.35183 1.66667 6.74066 2.15541 5.37025 3.07109C3.99984 3.98677 2.93174 5.28826 2.30101 6.81098C1.67028 8.33369 1.50525 10.0092 1.82679 11.6258C2.14834 13.2423 2.94201 14.7271 4.10745 15.8926C5.27289 17.058 6.75774 17.8517 8.37425 18.1732C9.99076 18.4948 11.6663 18.3297 13.189 17.699C14.7118 17.0683 16.0132 16.0002 16.9289 14.6298C17.8446 13.2593 18.3333 11.6482 18.3333 10C18.3309 7.79061 17.4522 5.67241 15.8899 4.11013C14.3276 2.54785 12.2094 1.6691 10 1.66667ZM14.7217 13.1217C14.8868 12.9747 14.9867 12.7682 14.9995 12.5475C15.0123 12.3268 14.937 12.1101 14.79 11.945C14.643 11.7799 14.4365 11.68 14.2158 11.6671C13.9952 11.6543 13.7784 11.7297 13.6133 11.8767C12.5946 12.7344 11.3288 13.2447 10 13.3333C8.67202 13.2448 7.40686 12.7351 6.38834 11.8783C6.22346 11.7311 6.00687 11.6555 5.7862 11.668C5.56553 11.6805 5.35887 11.7801 5.21167 11.945C5.06448 12.1099 4.98881 12.3265 5.00131 12.5471C5.01381 12.7678 5.11346 12.9745 5.27834 13.1217C6.60156 14.2521 8.26185 14.9126 10 15C11.7382 14.9126 13.3984 14.2521 14.7217 13.1217ZM5 8.33334C5 9.16667 5.74584 9.16667 6.66667 9.16667C7.5875 9.16667 8.33334 9.16667 8.33334 8.33334C8.33334 7.89131 8.15774 7.46739 7.84518 7.15483C7.53262 6.84227 7.1087 6.66667 6.66667 6.66667C6.22464 6.66667 5.80072 6.84227 5.48816 7.15483C5.1756 7.46739 5 7.89131 5 8.33334ZM11.6667 8.33334C11.6667 9.16667 12.4125 9.16667 13.3333 9.16667C14.2542 9.16667 15 9.16667 15 8.33334C15 7.89131 14.8244 7.46739 14.5118 7.15483C14.1993 6.84227 13.7754 6.66667 13.3333 6.66667C12.8913 6.66667 12.4674 6.84227 12.1548 7.15483C11.8423 7.46739 11.6667 7.89131 11.6667 8.33334Z" fill="#F9BD23"/>
</g>
<defs>
<clipPath id="clip0_23748_12064">
<rect width="20" height="20" fill="white"/>
</clipPath>
</defs>
</svg>
