<svg width="17" height="17" viewBox="0 0 17 17" fill="none" xmlns="http://www.w3.org/2000/svg">
<path d="M0.482682 14.1754L0.466016 14.1921C0.241016 13.7004 0.099349 13.1421 0.0410156 12.5254C0.099349 13.1337 0.257682 13.6837 0.482682 14.1754Z" fill="#1455AC"/>
<path d="M5.83392 6.98425C6.92932 6.98425 7.81724 6.09627 7.81724 5.00091C7.81724 3.90554 6.92932 3.01758 5.83392 3.01758C4.73855 3.01758 3.85059 3.90554 3.85059 5.00091C3.85059 6.09627 4.73855 6.98425 5.83392 6.98425Z" fill="#1455AC"/>
<path d="M11.825 0H4.84167C1.80833 0 0 1.80833 0 4.84167V11.825C0 12.7333 0.158333 13.525 0.466667 14.1917C1.18333 15.775 2.71667 16.6667 4.84167 16.6667H11.825C14.8583 16.6667 16.6667 14.8583 16.6667 11.825V9.91667V4.84167C16.6667 1.80833 14.8583 0 11.825 0ZM15.3083 8.75C14.6583 8.19167 13.6083 8.19167 12.9583 8.75L9.49167 11.725C8.84167 12.2833 7.79167 12.2833 7.14167 11.725L6.85833 11.4917C6.26667 10.975 5.325 10.925 4.65833 11.375L1.54167 13.4667C1.35833 13 1.25 12.4583 1.25 11.825V4.84167C1.25 2.49167 2.49167 1.25 4.84167 1.25H11.825C14.175 1.25 15.4167 2.49167 15.4167 4.84167V8.84167L15.3083 8.75Z" fill="#1455AC"/>
</svg>
