<svg width="20" height="20" viewBox="0 0 20 20" fill="none" xmlns="http://www.w3.org/2000/svg">
<path d="M5.61548 18.2921C4.66764 18.2924 3.74102 18.0115 2.95286 17.485C2.1647 16.9585 1.55043 16.21 1.18778 15.3343C0.825125 14.4586 0.730386 13.495 0.915548 12.5654C1.10071 11.6358 1.55745 10.782 2.22798 10.1121L9.29882 3.04045C9.41606 2.9232 9.57509 2.85733 9.7409 2.85733C9.90671 2.85733 10.0657 2.9232 10.183 3.04045C10.3002 3.15769 10.3661 3.31672 10.3661 3.48253C10.3661 3.64834 10.3002 3.80736 10.183 3.92461L3.11132 10.9954C2.76896 11.3212 2.49527 11.7123 2.30637 12.1455C2.11748 12.5787 2.0172 13.0453 2.01144 13.5179C2.00568 13.9905 2.09457 14.4594 2.27286 14.8971C2.45114 15.3348 2.71523 15.7324 3.04955 16.0664C3.38387 16.4005 3.78167 16.6642 4.21951 16.8422C4.65734 17.0201 5.12636 17.1086 5.59893 17.1024C6.07149 17.0963 6.53805 16.9956 6.97111 16.8063C7.40417 16.6171 7.79497 16.3431 8.12048 16.0004L17.2538 6.86711C17.6723 6.43492 17.9042 5.85552 17.8994 5.2539C17.8946 4.65229 17.6534 4.07668 17.228 3.65126C16.8026 3.22584 16.227 2.98471 15.6254 2.97988C15.0237 2.97505 14.4443 3.20691 14.0121 3.62545L6.64715 10.9954C6.45177 11.1908 6.34201 11.4558 6.34201 11.7321C6.34201 12.0084 6.45177 12.2734 6.64715 12.4688C6.84253 12.6642 7.10751 12.7739 7.38382 12.7739C7.66012 12.7739 7.92511 12.6642 8.12048 12.4688L12.833 7.75545C12.8906 7.69572 12.9596 7.64808 13.0358 7.61529C13.112 7.5825 13.194 7.56522 13.277 7.56446C13.36 7.5637 13.4423 7.57947 13.5191 7.61086C13.596 7.64225 13.6658 7.68863 13.7245 7.74728C13.7832 7.80594 13.8296 7.8757 13.8611 7.95249C13.8925 8.02929 13.9084 8.11158 13.9077 8.19457C13.907 8.27755 13.8898 8.35957 13.8571 8.43584C13.8244 8.51211 13.7768 8.5811 13.7171 8.63878L9.00382 13.3529C8.57406 13.7828 7.99113 14.0244 7.38328 14.0244C6.77543 14.0245 6.19244 13.7831 5.76257 13.3534C5.3327 12.9236 5.09115 12.3407 5.09107 11.7328C5.091 11.125 5.33239 10.542 5.76215 10.1121L13.1288 2.75045C13.793 2.08619 14.6938 1.71297 15.6331 1.71289C16.5724 1.71281 17.4733 2.08588 18.1376 2.75003C18.8018 3.41417 19.175 4.31499 19.1751 5.25432C19.1752 6.19364 18.8021 7.09452 18.138 7.75878L9.00465 16.8888C8.56054 17.3351 8.03234 17.689 7.4506 17.9298C6.86885 18.1707 6.24512 18.2938 5.61548 18.2921Z" fill="#46A046"/>
</svg>
