<svg width="17" height="17" viewBox="0 0 17 17" fill="none" xmlns="http://www.w3.org/2000/svg">
<path d="M16.1372 0.00857866L0.466211 2.88993C0.343378 2.9125 0.234362 2.97377 0.152288 3.06636C0.0702145 3.15895 0.0185832 3.27892 0.0036109 3.41181C-0.00929246 3.54045 0.0125391 3.67549 0.0666512 3.80175C0.120763 3.92801 0.205011 4.04049 0.309922 4.12654L6.12196 8.64721L11.5504 3.90636L12.4798 5.05917L7.05136 9.80002L10.2864 16.5418C10.3371 16.6459 10.4084 16.7393 10.4948 16.8144C10.5812 16.8894 10.6802 16.9441 10.7838 16.974C10.8875 17.0038 10.9929 17.0081 11.0915 16.9863C11.1902 16.9646 11.2794 16.9175 11.3519 16.8489C11.4266 16.7827 11.4831 16.6964 11.5168 16.5968L16.9644 1.03458C17.004 0.917547 17.0107 0.786437 16.9838 0.655687C16.9569 0.524936 16.8974 0.399618 16.8119 0.293533C16.7264 0.187448 16.6181 0.10471 16.4991 0.054433C16.38 0.00415575 16.2548 -0.0117118 16.1372 0.00857866Z" fill="#FAFBFC"/>
</svg>
