<?xml version="1.0" encoding="UTF-8"?>
<svg version="1.1" xmlns="http://www.w3.org/2000/svg" width="16" height="17">
<path d="M0 0 C3.96 0 7.92 0 12 0 C14.68971315 5.3794263 13.5018415 7.32637654 12 13 C8.04 13 4.08 13 0 13 C-2.25 4.5 -2.25 4.5 0 0 Z M3 2 C3.33 3.32 3.66 4.64 4 6 C4.33 4.68 4.66 3.36 5 2 C4.34 2 3.68 2 3 2 Z M8 2 C8 3.32 8 4.64 8 6 C8.66 5.67 9.32 5.34 10 5 C9.34 4.01 8.68 3.02 8 2 Z M2 8 C2 9.32 2 10.64 2 12 C2.66 12 3.32 12 4 12 C4 10.68 4 9.36 4 8 C3.34 8 2.68 8 2 8 Z M6 8 C6 9.32 6 10.64 6 12 C7.32 12 8.64 12 10 12 C10 10.68 10 9.36 10 8 C8.68 8 7.36 8 6 8 Z " fill="currentColor" transform="translate(2,2)"/>
</svg>
